<svg width="318" height="117" viewBox="0 0 318 117" fill="none" xmlns="http://www.w3.org/2000/svg">
<path fill-rule="evenodd" clip-rule="evenodd" d="M151.807 52.7834V63.9096H142.196V52.7834H137V79.7834H142.196V68.808H151.807V79.7834H157V52.7834H151.807ZM165 69.9195V52.7834H170.275V69.6101C170.275 73.2075 172.552 74.6804 174.981 74.6804C177.448 74.6804 179.725 73.2075 179.725 69.6101V52.7834H185V69.9195C185 76.07 180.332 79.7834 174.981 79.7834C169.668 79.7834 165 76.07 165 69.9195ZM193 79.7834H198V52.7834H193V79.7834ZM224 56.9765L211.696 74.9664H224V79.7834H205V75.5934L217.146 57.6035H205.492V52.7834H224V56.9765ZM249 74.9634V79.7834H232V52.7834H248.653V57.6004H237.355V64.0272H247.265V68.9256H237.355V74.9634H249ZM276 52.7834V79.7834H271.137L261.411 62.8546V79.7834H256V52.7834H261.022L270.592 69.5164V52.7834H276ZM137 108.688H142.337C142.373 110.594 144.215 112.163 146.671 112.163C149.051 112.163 150.624 110.941 150.624 109.07C150.624 107.619 149.55 106.585 147.285 105.901L144.064 104.981C138.269 103.457 137.23 99.9789 137.23 97.6114C137.23 92.9176 141.298 89.7834 146.367 89.7834C151.353 89.7834 155.191 92.803 155.191 97.8053H149.857C149.857 95.9313 148.552 94.4802 146.252 94.4802C144.18 94.4802 142.603 95.7433 142.603 97.4969C142.603 98.146 142.795 99.5236 145.558 100.287L148.513 101.127C152.508 102.235 156 104.335 156 108.803C156 114.031 151.507 116.783 146.521 116.783C140.876 116.783 137 113.347 137 108.688ZM161 103.244C161 95.8282 166.898 89.7834 174.314 89.7834C178.76 89.7834 182.639 91.9248 185 95.2517L180.966 98.1961C179.483 96.0929 177.277 94.7928 174.501 94.7928C169.747 94.7928 166.289 98.5403 166.289 103.244C166.289 107.95 169.712 111.771 174.466 111.771C177.277 111.771 179.483 110.471 180.966 108.33L185 111.312C182.639 114.601 178.76 116.783 174.314 116.783C166.898 116.783 161 110.739 161 103.244ZM204.799 105.991L201.478 96.2174L198.201 105.991H204.799ZM206.383 110.554H196.652L194.581 116.783H189L198.691 90.7834H204.347L214 116.783H208.492L206.383 110.554ZM240 90.7834V116.783H235.137L225.408 100.482V116.783H220V90.7834H225.019L234.589 106.897V90.7834H240ZM267 90.7834V116.783H262.137L252.411 100.482V116.783H247V90.7834H252.022L261.592 106.897V90.7834H267ZM292 112.142V116.783H275V90.7834H291.653V95.422H280.358V101.611H290.265V106.328H280.358V112.142H292ZM303.421 103.236H307.748C310.789 103.236 312.075 101.463 312.075 99.3872C312.075 97.3117 310.711 95.4249 308.177 95.4249H303.421V103.236ZM305.253 107.463H303.421V116.783H298V90.7834H308.723C314.882 90.7834 317.532 95.0098 317.532 99.274C317.532 102.972 315.544 106.293 311.022 107.199L318 116.783H311.646L305.253 107.463ZM4.8698 20H0V0H19V5.1261H4.8698V20ZM0 62.1816L41.0005 29L82 62.1816V117H0V62.1816ZM41.0005 35.462L5.00104 64.5955L5.001 111.873L19 111.874V111.962L76.999 111.963V64.5955L41.0005 35.462ZM117 20H112.13V5.1261H98V0H117V20ZM117 117H98V111.874H112.13V97H117V117Z" fill="#6058E5"/>
</svg>
