<?xml version="1.0" encoding="UTF-8"?> <svg xmlns="http://www.w3.org/2000/svg" viewBox="0 0 290.60207 63.6731"><title>logo-wit</title><path d="M253.75568,37.04128q0,3.01245-3.237,4.87178-3.23323,1.86306-10.76633,1.86115-2.11394,0-4.82212-.13756a25.78646,25.78646,0,0,1-4.55694-.57611A10.53843,10.53843,0,0,1,224.164,39.941V31.403a12.4235,12.4235,0,0,1,2.90546-2.98358,39.27832,39.27832,0,0,1,4.88943-3.03685,38.47947,38.47947,0,0,0,5.48184-3.55685,5.59154,5.59154,0,0,0,2.44253-4.488,2.695,2.695,0,0,0-.064-.493,3.05347,3.05347,0,0,1-.06687-.60165,1.68024,1.68024,0,0,0-.06687-.49305,1.27284,1.27284,0,0,1-.06692-.32863l-1.31992-.49324a3.06492,3.06492,0,0,0-2.6408,2.24549,6.33168,6.33168,0,0,1-1.71836,2.5711,6.87037,6.87037,0,0,1-3.03924.49275h-1.58554c-1.4064,0-2.61551.01145-3.63018.02794a7.50367,7.50367,0,0,1-1.52058-.02794V13.83327q0-1.03617,1.52058-1.69664a14.99166,14.99166,0,0,1,3.69989-.98292,44.64092,44.64092,0,0,1,4.557-.43733q2.37831-.10888,4.09309-.11177,1.98422,0,4.36107.16481,2.37831.16663,4.22684.43713a14.39251,14.39251,0,0,1,3.37076.9024,5.72191,5.72191,0,0,1,2.573,2.2178v7.499q-.92295.87745-1.7819,1.55972c-.5742.45694-1.12356.88283-1.65241,1.2841q-1.71762,1.09494-5.01985,2.90311a51.46015,51.46015,0,0,0-5.81145,3.72141q-2.64056,1.9724-2.64271,4.32311v1.03951a3.35291,3.35291,0,0,0,.39506,1.53491q.39771.76893,2.24574,1.25544a3.77033,3.77033,0,0,0,2.57633-1.36433,7.4333,7.4333,0,0,0,1.05865-2.165q.33035-1.12.5269-1.99684a.96369.96369,0,0,1,.99172-.87471h9.51l.79346,3.72141Z" style="fill:#fff"></path><path d="M272.43734,15.83085q-1.78425.46793-1.78332,1.23107V43.17134a55.83137,55.83137,0,0,1-5.87783.54652,15.89077,15.89077,0,0,1-5.08677-.54652V2.12247L260.87848.47891a7.83569,7.83569,0,0,1,1.32138-.08076c.7911-.01649,1.40924-.02769,1.84877-.02769h1.05859q1.05407,0,2.17936.05542c.74571.03654,1.20911.053,1.38683.053.26128.0726.65732.16456,1.18617.27326.53028.111.79444.20325.79444.2756v9.79707q.66069,0,2.18126-.02774,1.517-.02538,3.23365-.08072,1.71762-.05479,3.3039-.05566h2.37905a18.25826,18.25826,0,0,1,2.44351.21979,27.34671,27.34671,0,0,1,2.90741.574,15.95255,15.95255,0,0,1,2.44352.819c.70178.3117,1.05575.64924,1.05575,1.014V43.17134c0,.07308-.19777.13712-.59382.19347-.39506.05591-.87945.108-1.45365.16388-.57425.05635-1.14513.09984-1.716.13662q-.86138.05373-1.38732.05255c-.17772,0-.72708-.064-1.65241-.1925q-1.38588-.19137-2.31168-.354c-.35065-.07167-.96928-.23647-1.84971-.49158V15.96723q0-.38054-1.05771-.49016a18.42833,18.42833,0,0,0-1.84681-.11178h-.92539A13.41588,13.41588,0,0,0,272.43734,15.83085Z" style="fill:#fff"></path><path d="M176.32479,14.176a1.56643,1.56643,0,0,1-1.05669-1.39569,1.54994,1.54994,0,0,1,1.05669-1.42357,15.96833,15.96833,0,0,1,3.70184-.93014V3.58527q1.44965-.81976,2.50658-1.42362a14.31878,14.31878,0,0,1,2.18126-1.01134,13.14093,13.14093,0,0,1,2.70817-.62962,32.47857,32.47857,0,0,1,4.22879-.22023q2.11386.05877,3.30052.08384a10.64613,10.64613,0,0,1,1.71933.13639,5.09469,5.09469,0,0,1,1.51725.32868,9.87454,9.87454,0,0,1,1.126.655,1.12152,1.12152,0,0,1,.13041,1.3703,2.14335,2.14335,0,0,1-1.65148,1.33977,41.57261,41.57261,0,0,1-4.16187.90264v5.30959q2.77528.109,3.4348.6853a1.73353,1.73353,0,0,1,.6602,1.33953,1.87122,1.87122,0,0,1-.92485,1.6438,11.38191,11.38191,0,0,1-3.96126,1.03908l-.26416,27.20147a4.88957,4.88957,0,0,0-1.38727.22023q-.728.21784-1.52156.49016c-.5288.18486-1.05575.33724-1.58461.46575a4.24064,4.24064,0,0,1-1.58554.0836c-.44,0-1.01324-.01957-1.716-.05591q-1.05692-.05513-2.11434-.16432a11.54549,11.54549,0,0,1-1.84877-.32531c-.52978-.14621-.7916-.32917-.7916-.5494V15.13435A14.60557,14.60557,0,0,1,176.32479,14.176Z" style="fill:#fff"></path><path d="M215.833,5.11705a7.751,7.751,0,0,1-2.70675.54891c-1.01467.03606-2.00355.053-2.97287.053h-1.05526q-1.19165,0-2.9757-.10894-1.78425-.10817-1.78282-.493V1.33948c0-.1084.24267-.20061.72706-.27252.48488-.0726,1.05576-.12562,1.71645-.16148q.9903-.05481,1.91662-.0838c.61529-.01648,1.10017-.028,1.45365-.028q3.56358,0,4.68882.6853a2.20289,2.20289,0,0,1,1.12454,1.99758V3.8578a1.64922,1.64922,0,0,1-.06687.49324,1.70846,1.70846,0,0,0-.06687.493Zm-5.67962,5.747H211.738a15.446,15.446,0,0,1,2.70816.24792q1.38735.2461,1.38684.9024V41.89966a1.0809,1.0809,0,0,1-.59573.95689,4.47587,4.47587,0,0,1-1.51867.51878,13.63049,13.63049,0,0,1-2.04748.19205q-1.12362.02649-2.17794.02818h-1.05908c-.439,0-.85988-.01052-1.25593-.02818q-.59259-.02868-1.11979-.02773h-.5288a1.82977,1.82977,0,0,1-.72708-.21784c-.31-.14426-.4629-.25506-.4629-.32721V12.01434q0-.656,1.45462-.9024a17.30909,17.30909,0,0,1,2.90551-.24792Z" style="fill:#fff"></path><path d="M1.02406,36.12358l.79375-3.72048h9.51065a.96358.96358,0,0,1,.99123.87471q.19672.87635.5267,1.99684a7.42249,7.42249,0,0,0,1.05884,2.1641A3.78052,3.78052,0,0,0,16.48156,38.805q1.84735-.49083,2.24555-1.25735a3.35006,3.35006,0,0,0,.39555-1.53535V34.97322q0-2.35175-2.64369-4.32286a51.40786,51.40786,0,0,0-5.8112-3.72142Q7.36755,25.1232,5.64836,24.02608c-.5293-.40079-1.07821-.8274-1.65193-1.28411-.574-.45694-1.16729-.97479-1.78307-1.55975v-7.499A5.71749,5.71749,0,0,1,4.7873,11.46591,14.36273,14.36273,0,0,1,8.15782,10.563q1.84736-.27157,4.22615-.43733,2.37758-.16267,4.36248-.16456,1.713,0,4.09192.11153A44.71741,44.71741,0,0,1,25.3958,10.51a14.98471,14.98471,0,0,1,3.6992.98365q1.52135.66,1.52131,1.69615v6.40428a7.53319,7.53319,0,0,1-1.52131.02769q-1.52089-.02472-3.62969-.02769h-1.585a6.8638,6.8638,0,0,1-3.03881-.4928A6.31988,6.31988,0,0,1,19.12266,16.53a3.06647,3.06647,0,0,0-2.6411-2.24555l-1.32016.49349a1.26577,1.26577,0,0,1-.06687.32868,1.66962,1.66962,0,0,0-.06687.49275,3.04138,3.04138,0,0,1-.06687.60194,2.67638,2.67638,0,0,0-.06428.49276,5.59351,5.59351,0,0,0,2.443,4.48816,38.49093,38.49093,0,0,0,5.48257,3.55734,39.411,39.411,0,0,1,4.8887,3.03616,12.45351,12.45351,0,0,1,2.9055,2.98333v8.53752a10.54348,10.54348,0,0,1-6.2094,3.12094,25.96245,25.96245,0,0,1-4.55742.57709q-2.70756.13259-4.82183.13565-7.52977,0-10.76682-1.86022-3.23859-1.86093-3.23678-4.8727Z" style="fill:#fff"></path><path d="M47.53638,4.652a7.75076,7.75076,0,0,1-2.708.54843c-1.01349.03654-2.00237.053-2.97262.053H40.80027q-1.18981,0-2.97448-.10846-1.78431-.10888-1.78312-.493V.87446c0-.10845.24176-.20041.72737-.273Q37.497.49323,38.48526.44q.99068-.05415,1.91687-.08336c.61529-.017,1.1009-.028,1.45365-.028q3.56533,0,4.68882.6853A2.20392,2.20392,0,0,1,47.67012,3.011v.38171a1.69431,1.69431,0,0,1-.06688.49349,1.70872,1.70872,0,0,0-.06686.49275Zm-5.6806,5.747h1.58559a15.44535,15.44535,0,0,1,2.70792.24791q1.38625.2462,1.38709.9024V41.43391a1.08092,1.08092,0,0,1-.59671.95782A4.47644,4.47644,0,0,1,45.422,42.91a13.62707,13.62707,0,0,1-2.04753.19255c-.749.01624-1.47635.02769-2.17813.02769H40.13767c-.44041,0-.8613-.01145-1.25637-.02769-.396-.01957-.7684-.02769-1.12047-.02769H37.232a1.83687,1.83687,0,0,1-.72732-.21832c-.30863-.14382-.462-.25511-.462-.32819V11.54927q0-.656,1.45371-.9024a17.32046,17.32046,0,0,1,2.90575-.24791Z" style="fill:#fff"></path><path d="M59.29443,0c.44046,0,.83552.01071,1.18949.02769.35065.01957.74885.02793,1.18931.02793h.66045c.35088.145.70486.273,1.05575.38171a1.63583,1.63583,0,0,1,.99172.6853q.196.40951.85822,1.66816v37.713l-1.58554,1.532q-.3966.87642-2.11439,1.01041-1.71616.13537-3.03612.13756c-.44046,0-.94662-.01243-1.52082-.02578-.574-.01962-1.12238-.06688-1.65241-.13663a6.68393,6.68393,0,0,1-1.38684-.3282c-.39506-.14524-.59377-.36547-.59377-.65736V1.64048a5.06231,5.06231,0,0,1,2.70817-1.34A15.19737,15.19737,0,0,1,58.50332,0Z" style="fill:#fff"></path><path d="M70.52891,11.60229q0-.87348,1.98349-1.7496h9.3795l2.50946,2.13372,3.9641,15.27121a.75982.75982,0,0,0,.19562-.248,1.27855,1.27855,0,0,1,.33133-.35373q.52632-.43923,2.50945-7.1703,1.98163-6.8401,2.7748-7.77224a4.75364,4.75364,0,0,1,2.24505-1.69614c.52979-.0726,1.12263-.128,1.78308-.16456q.99066-.05417,2.315-.05567a34.58765,34.58765,0,0,1,5.54557.32868q1.98171.33034.26563,2.73541a61.87385,61.87385,0,0,1-2.51064,7.499q-2.5109,6.84471-7.52931,20.08683-2.775,2.46643-4.62478,2.57252c-.52886.03869-1.12263.06354-1.78215.08311-.66352.01624-1.4764.02769-2.44351.02769a18.10024,18.10024,0,0,1-5.68245-.65732,3.9725,3.9725,0,0,1-2.50946-2.73781l-8.19-26.48922A3.00077,3.00077,0,0,1,70.52891,11.60229Z" style="fill:#fff"></path><path d="M112.15438,18.99263a5.85729,5.85729,0,0,1,.2644-1.77735,9.9082,9.9082,0,0,1,.65952-1.61592,9.74559,9.74559,0,0,1,5.01985-4.05009Q121.796,9.961,129.59205,9.96114q1.713,0,4.22541.22023a46.6512,46.6512,0,0,1,4.88944.68265,20.0983,20.0983,0,0,1,4.02813,1.17805c1.09968.47388,1.65217,1.02279,1.65217,1.64116L144.52,24.30174q.26409,3.9408-6.4738,3.939H125.23264v9.52474c0,.25559.39507.60433,1.18926,1.03951a4.24368,4.24368,0,0,0,2.50946.49158q3.69931,0,4.22659-1.36722,0-1.914.06692-2.98289c.04442-.71083.15331-1.1398.33127-1.28411a7.00368,7.00368,0,0,1,1.71621-1.15129,9.0094,9.0094,0,0,1,4.095-.71083c1.23059,0,2.26771.03728,3.10324.10894a2.554,2.554,0,0,1,1.91662.9836v.65781a7.59164,7.59164,0,0,0,.06594.95782,8.27679,8.27679,0,0,1,.06687,1.06774v.54744a17.66624,17.66624,0,0,1-.13281,1.88888,5.794,5.794,0,0,1-.79111,2.29877,5.3084,5.3084,0,0,1-2.31286,1.94431,10.42909,10.42909,0,0,1-4.55694.81933h-15.458a9.07263,9.07263,0,0,1-3.43431-.54651,11.494,11.494,0,0,1-2.3788-1.31468q-.795-.81978-1.18739-1.15037c-.08859-.181-.22238-.418-.39815-.71083-.178-.2895-.43953-.69077-.79135-1.2029a9.60687,9.60687,0,0,1-.462-1.12262c-.13375-.38171-.2871-.79111-.46194-1.23157q0-.60052-.06784-1.42313-.06627-.819-.19754-1.8612a4.44117,4.44117,0,0,1-.13066-1.15007v-5.8A63.595,63.595,0,0,1,112.15438,18.99263ZM128.205,14.477a11.32521,11.32521,0,0,0-1.38679.57352,5.78727,5.78727,0,0,0-1.1236.71347c-.30882.25629-.46194.47339-.46194.65448v6.40429q0,.49295.66045.7937a5.90565,5.90565,0,0,0,1.64928.43782q.98928.13722,2.04655.19181c.70466.03918,1.36536.05567,1.98374.05567v-8.978c0-.07265-.15552-.24484-.46219-.51809a3.035,3.035,0,0,0-.72732-.52123c-.35089-.03341-.61529-.053-.7911-.053A4.38689,4.38689,0,0,0,128.205,14.477Z" style="fill:#fff"></path><path d="M173.19719,13.84736q-1.19025.10853-3.03831.3841-1.85235.27619-3.633.71059a21.75608,21.75608,0,0,0-3.10611.986q-1.32.54821-1.32,1.20339l-.1309,25.06872a4.9,4.9,0,0,1-1.98349.87471h-7.396a9.9893,9.9893,0,0,1-1.05864-.10894,1.99758,1.99758,0,0,1-1.3209-.76577l-.26464-2.30072V12.15121a4.73836,4.73836,0,0,1,.46291-.71059,8.325,8.325,0,0,1,.72663-.93321,3.1426,3.1426,0,0,1,.66069-.326,2.35951,2.35951,0,0,1,.79395-.22023h20.60781Z" style="fill:#fff"></path><path d="M12.47466,50.91707l-2.41275,9.25578H8.61946L6.23757,53.0386,3.87428,60.17285H2.44044L0,50.91707H1.61729l1.70808,7.16912,2.31506-7.16912H6.92737l2.3721,7.16912,1.61445-7.16912Z" style="fill:#fff"></path><path d="M27.90589,55.70333H21.0788a3.92761,3.92761,0,0,0,.25418,1.48859,2.782,2.782,0,0,0,1.73411,1.639,4.10545,4.10545,0,0,0,1.3068.19778,5.19744,5.19744,0,0,0,1.904-.37785,4.67844,4.67844,0,0,0,1.36624-.74761h.08531v1.69731a12.838,12.838,0,0,1-1.61063.558,6.44669,6.44669,0,0,1-1.727.224,4.974,4.974,0,0,1-3.60269-1.2459A4.691,4.691,0,0,1,19.49639,55.592a5.08674,5.08674,0,0,1,1.2392-3.60293,4.24467,4.24467,0,0,1,3.26378-1.33571,3.74385,3.74385,0,0,1,2.88946,1.09591,4.39718,4.39718,0,0,1,1.01706,3.11043Zm-1.5151-1.19767a2.73288,2.73288,0,0,0-.61813-1.89411,2.38192,2.38192,0,0,0-1.85836-.6717,2.71082,2.71082,0,0,0-1.99493.73426,2.87632,2.87632,0,0,0-.84057,1.83155Z" style="fill:#fff"></path><path d="M43.86021,55.474a6.36061,6.36061,0,0,1-.327,2.09243,4.67921,4.67921,0,0,1-.885,1.55879,4.02564,4.02564,0,0,1-1.29272.9836,3.6342,3.6342,0,0,1-1.55257.32535,4.5727,4.5727,0,0,1-1.38086-.18535,6.18338,6.18338,0,0,1-1.15942-.50112l-.09935.42515H35.69462v-12.896h1.56807v4.60331a6.57966,6.57966,0,0,1,1.39305-.879,3.82655,3.82655,0,0,1,1.6596-.34781,3.06783,3.06783,0,0,1,2.59424,1.26356A5.80894,5.80894,0,0,1,43.86021,55.474Zm-1.60247.03679a4.70862,4.70862,0,0,0-.54725-2.51949,1.9437,1.9437,0,0,0-1.77064-.86038,3.5674,3.5674,0,0,0-1.38131.29528,5.634,5.634,0,0,0-1.29585.76053v5.30886a6.50629,6.50629,0,0,0,1.14415.41658,4.60906,4.60906,0,0,0,1.08442.11653,2.54242,2.54242,0,0,0,2.03246-.85079A4.03045,4.03045,0,0,0,42.25774,55.51079Z" style="fill:#fff"></path><path d="M72.25078,52.6249v.79634a8.59246,8.59246,0,0,1-.20971,1.79623,6.52924,6.52924,0,0,1-.70276,1.90038l3.12881,3.055h-2.0372l-1.89319-1.85831a5.71607,5.71607,0,0,1-1.94983,1.65051,4.72024,4.72024,0,0,1-2.04488.46912,4.16693,4.16693,0,0,1-2.86437-1.0061,3.36393,3.36393,0,0,1-1.141-2.6456,3.67465,3.67465,0,0,1,.2171-1.32089,4.46855,4.46855,0,0,1,.50665-.964,4.06933,4.06933,0,0,1,.71773-.7347,7.7709,7.7709,0,0,1,.87211-.601A4.50084,4.50084,0,0,1,63.5398,51.958a2.71113,2.71113,0,0,1-.40221-1.52772,2.64308,2.64308,0,0,1,.21495-1.05865,2.92472,2.92472,0,0,1,.66118-.9177,3.139,3.139,0,0,1,1.08369-.64631,4.111,4.111,0,0,1,1.46779-.2508,3.55278,3.55278,0,0,1,2.31863.72609,2.28368,2.28368,0,0,1,.8864,1.84163,4.048,4.048,0,0,1-.09867.8255,2.503,2.503,0,0,1-.33871.82691,3.2,3.2,0,0,1-.75623.77775,4.39367,4.39367,0,0,1-1.2681.64206L70.365,56.19922a3.838,3.838,0,0,0,.177-.73476c.0339-.26513.05757-.53981.06569-.82931.01145-.30623.01458-.654.01145-1.039,0-.38078-.0043-.7056-.0043-.97123ZM69.7425,57.56164l-3.946-3.87a2.95891,2.95891,0,0,0-.51379.32819,3.06807,3.06807,0,0,0-.51041.55366,2.97941,2.97941,0,0,0-.38122.782,3.42958,3.42958,0,0,0-.14642,1.02807,2.70686,2.70686,0,0,0,.70819,1.95482,2.61013,2.61013,0,0,0,1.99925.74381,3.3818,3.3818,0,0,0,2.79035-1.52058Zm-1.60726-7.27132a1.6549,1.6549,0,0,0-.46649-1.24066,1.76012,1.76012,0,0,0-2.419.0564,1.76,1.76,0,0,0-.47744,1.24683,1.93159,1.93159,0,0,0,.32506,1.10541A4.65943,4.65943,0,0,0,66.5,52.59721a2.51941,2.51941,0,0,0,1.21817-.85083A2.37461,2.37461,0,0,0,68.13524,50.29032Z" style="fill:#fff"></path><path d="M99.81268,60.17285h-1.564v-.96213a5.72853,5.72853,0,0,1-1.40234.9024,3.89584,3.89584,0,0,1-1.5896.321,3.14905,3.14905,0,0,1-2.633-1.27505,5.71282,5.71282,0,0,1-.9743-3.54418,6.04973,6.04973,0,0,1,.33631-2.09811,4.8751,4.8751,0,0,1,.90866-1.56886,3.85686,3.85686,0,0,1,2.86964-1.29462,4.992,4.992,0,0,1,1.29722.15243,6.00657,6.00657,0,0,1,1.18739.47959V47.27686h1.564Zm-1.564-2.2658V52.59291a5.93319,5.93319,0,0,0-1.13172-.38793,5.03409,5.03409,0,0,0-1.09064-.107,2.473,2.473,0,0,0-2.04341.90954,4.04184,4.04184,0,0,0-.7326,2.58445,4.5622,4.5622,0,0,0,.56491,2.50756,2.0092,2.0092,0,0,0,1.81291.858,3.31583,3.31583,0,0,0,1.34574-.29331A5.81108,5.81108,0,0,0,98.24866,57.90705Z" style="fill:#fff"></path><path d="M116.07826,55.70333h-6.82777a3.97576,3.97576,0,0,0,.25413,1.48859,2.783,2.783,0,0,0,1.73366,1.639,4.12176,4.12176,0,0,0,1.30774.19778,5.17667,5.17667,0,0,0,1.90346-.37785,4.65557,4.65557,0,0,0,1.36629-.74761h.08551v1.69731a12.58158,12.58158,0,0,1-1.61015.558,6.45906,6.45906,0,0,1-1.72765.224,4.97461,4.97461,0,0,1-3.602-1.2459A4.697,4.697,0,0,1,107.668,55.592a5.08732,5.08732,0,0,1,1.23993-3.60293,4.24424,4.24424,0,0,1,3.26354-1.33571,3.74473,3.74473,0,0,1,2.89019,1.09591,4.397,4.397,0,0,1,1.01657,3.11043Zm-1.51338-1.19767a2.731,2.731,0,0,0-.6196-1.89411,2.3789,2.3789,0,0,0-1.85812-.6717,2.71452,2.71452,0,0,0-1.99586.73426,2.87361,2.87361,0,0,0-.84081,1.83155Z" style="fill:#fff"></path><path d="M130.48456,57.49335a2.516,2.516,0,0,1-1.0493,2.07947,4.55194,4.55194,0,0,1-2.8582.80974,6.89372,6.89372,0,0,1-1.88815-.24459,8.01189,8.01189,0,0,1-1.43316-.53742V57.85162h.08028a6.20886,6.20886,0,0,0,1.639.89526,4.91657,4.91657,0,0,0,1.72554.33534,3.2065,3.2065,0,0,0,1.60486-.33534,1.12485,1.12485,0,0,0,.57925-1.0515,1.0518,1.0518,0,0,0-.31362-.82833,2.81459,2.81459,0,0,0-1.2122-.48249c-.21807-.04969-.50924-.107-.862-.173q-.5342-.10031-.97455-.21734a3.21178,3.21178,0,0,1-1.7253-.94638,2.34987,2.34987,0,0,1-.50734-1.53632,2.49525,2.49525,0,0,1,.23457-1.07582,2.61915,2.61915,0,0,1,.71611-.90239,3.43844,3.43844,0,0,1,1.18329-.61627,5.25874,5.25874,0,0,1,1.60394-.22738,7.226,7.226,0,0,1,1.67417.20062,6.26363,6.26363,0,0,1,1.41453.49588V53.0477h-.08121a5.61208,5.61208,0,0,0-1.44651-.751,4.91549,4.91549,0,0,0-1.673-.30574,2.92668,2.92668,0,0,0-1.4384.32917,1.072,1.072,0,0,0-.5876.986,1.05257,1.05257,0,0,0,.35808.85989,2.77056,2.77056,0,0,0,1.12263.47246c.29023.06687.61006.13041.964.19875.35711.06545.65541.12753.89212.183a3.30158,3.30158,0,0,1,1.673.85083A2.253,2.253,0,0,1,130.48456,57.49335Z" style="fill:#fff"></path><path d="M139.828,49.36924h-1.779v-1.617h1.779Zm-.107,10.80361h-1.566V50.91707h1.566Z" style="fill:#fff"></path><path d="M155.76109,59.12042a4.80187,4.80187,0,0,1-1.0696,3.45055,4.42564,4.42564,0,0,1-3.29866,1.10213,9.74687,9.74687,0,0,1-1.44362-.10273,10.38568,10.38568,0,0,1-1.38395-.29424V61.68721h.08213c.25418.09461.66167.21833,1.21342.36307a6.60114,6.60114,0,0,0,1.65862.21735,3.897,3.897,0,0,0,1.32-.19156,1.90625,1.90625,0,0,0,.8188-.52881,1.87354,1.87354,0,0,0,.41369-.77775,3.86787,3.86787,0,0,0,.12328-1.01325v-.84409a6.17244,6.17244,0,0,1-1.34765.84409,4.19822,4.19822,0,0,1-1.641.27565,3.2162,3.2162,0,0,1-2.63415-1.19761,5.22314,5.22314,0,0,1-.97548-3.37987,5.69248,5.69248,0,0,1,.33773-2.0599,4.639,4.639,0,0,1,.91482-1.49621,3.69525,3.69525,0,0,1,1.31184-.91532,3.91177,3.91177,0,0,1,1.53491-.32965,4.71465,4.71465,0,0,1,1.351.16387,5.86277,5.86277,0,0,1,1.148.4906l.09984-.39075h1.46608Zm-1.56592-1.49191V52.58288a6.1739,6.1739,0,0,0-1.15751-.40225,5.00645,5.00645,0,0,0-1.06774-.11849,2.53908,2.53908,0,0,0-2.03221.86136,3.73039,3.73039,0,0,0-.7395,2.50085,4.21389,4.21389,0,0,0,.547,2.36134,2.05272,2.05272,0,0,0,1.82342.80255,3.835,3.835,0,0,0,1.36962-.26225A5.06572,5.06572,0,0,0,154.19517,57.62851Z" style="fill:#fff"></path><path d="M172.026,60.17285h-1.565V54.89266a9.19229,9.19229,0,0,0-.075-1.19767,2.2473,2.2473,0,0,0-.27276-.87564,1.29546,1.29546,0,0,0-.59857-.51976,2.63882,2.63882,0,0,0-1.01275-.16867,3.29122,3.29122,0,0,0-1.33621.31386,7.01234,7.01234,0,0,0-1.33283.80544v6.92263h-1.56357V50.91707h1.56357v1.02278a6.29434,6.29434,0,0,1,1.51055-.94491,3.95237,3.95237,0,0,1,1.5989-.34159,2.87379,2.87379,0,0,1,2.2926.90577,3.82632,3.82632,0,0,1,.79111,2.60309Z" style="fill:#fff"></path></svg> 