<svg data-name="Layer 1" xmlns="http://www.w3.org/2000/svg" viewBox="0 0 614.63 106.52"><path d="M555.48 33.9q-14.76 0-19.86 10.94V34.48h-18.3v69.81h18.87V72.36q0-10.5 5-15.11t13.05-4.62a29.64 29.64 0 015.68.56v-19c-1.9-.19-3.36-.28-4.4-.28M431.35 69.44q0 16 10.44 26.53T468 106.45q15.75 0 26.18-10.51t10.38-26.54q0-16-10.44-26.53t-26.19-10.48q-15.75 0-26.17 10.51t-10.41 26.54m18.87 0q0-9.36 5.17-14.62a17.65 17.65 0 0125.11 0q5.19 5.25 5.19 14.61T480.52 84a17.65 17.65 0 01-25.11 0q-5.19-5.25-5.19-14.61M390.17 13.7v9.79a11.45 11.45 0 01-2.77 8c-1.84 2-4.51 3.05-8 3.05h-3.55v16.77h12.63V83.8q0 10.08 6 15.82t16.18 5.74a28 28 0 0010.64-1.71V88a22.51 22.51 0 01-5.82.57c-2.84 0-4.92-.61-6.25-1.84s-2-3.31-2-6.24v-29.2h14V34.54h-14.02V13.69zm-37.43 48l16.88-5.7a30.45 30.45 0 00-10.93-16.66q-8.52-6.87-21.86-6.87A34.89 34.89 0 00311.09 43q-10.43 10.52-10.42 26.54T311.26 96q10.58 10.56 26.18 10.55 13.05 0 21.57-7A31.62 31.62 0 00370.06 83l-16.6-5.52a17.4 17.4 0 01-5.39 8.3q-4 3.48-10.64 3.48a17 17 0 01-12.7-5.31q-5.18-5.33-5.19-14.4t5.1-14.33a16.93 16.93 0 0112.63-5.26q12.06 0 15.47 11.77m-82.6-41.81a11.65 11.65 0 0016.46 0 11.05 11.05 0 003.4-8.09 11.38 11.38 0 00-3.41-8.37A11.22 11.22 0 00278.36 0a11.09 11.09 0 00-8.23 3.48 11.46 11.46 0 00-3.4 8.3 11.06 11.06 0 003.41 8.09m17.74 14.74h-18.87v69.8h18.87zm-48.09 0l-16.58 46.86-17.34-46.81h-20.71l28.56 69.79h18.87l27.06-69.82zM137.8 90.1a7.67 7.67 0 01-2.41-5.74q0-7.51 8.65-8.8l15.74-2.42v3.12q0 8.65-4.33 12.42a16.16 16.16 0 01-11 3.76 9.18 9.18 0 01-6.67-2.34m-14.68 10.16q6.6 6.24 17.39 6.23 13.89 0 20.56-10.37a39.39 39.39 0 00.72 8.37h17.33a63.79 63.79 0 01-.86-11.06V59.09q0-11.64-7.39-19.08t-23-7.44q-13.05 0-21 7t-8.93 16l16.74 3.53a12.2 12.2 0 013.9-8.09q3.44-3.25 9.44-3.26c3.79 0 6.69.84 8.73 2.54a8.2 8.2 0 013.06 6.53c0 2.84-1.75 4.49-5.25 5l-17.17 2.56a27.71 27.71 0 00-15 6.82q-5.8 5.4-5.81 14.33a19.7 19.7 0 006.61 14.76M85 20a11.65 11.65 0 0016.46 0 11.05 11.05 0 003.4-8.09 11.38 11.38 0 00-3.41-8.37A11.22 11.22 0 0093.2.1 11.09 11.09 0 0085 3.58a11.46 11.46 0 00-3.4 8.3A11 11 0 0085 20m17.74 14.75H83.85v69.8h18.87zm-48.09 0l-16.6 46.82-17.34-46.81H0l28.56 69.8h18.87l27.06-69.83zm514.87 52.79h45.1v16.74h-45.1z" fill="#fff"/></svg>